<svg xmlns="http://www.w3.org/2000/svg" viewBox="0 0 800 600" width="800" height="600">
	<style>
		tspan { white-space:pre }
		.shp0 { fill: none;stroke: #5d5c74;stroke-width: 4 } 
		.shp1 { fill: #4fc1ea;stroke: #5d5c74;stroke-width: 3 } 
		.shp2 { fill: #8fd4ff;stroke: #808080;stroke-width: 3.1 } 
		.shp3 { fill: none;stroke: #808080;stroke-width: 3.1 } 
		.shp4 { fill: #344258;stroke: #5d5c74;stroke-width: 4 } 
		.shp5 { fill: #fbd7ce } 
		.shp6 { fill: #5c5c74 } 
		.shp7 { fill: #e4e6e9 } 
		.shp8 { fill: #cdcfd2 } 
		.shp9 { fill: #5d5c74 } 
		.shp10 { fill: #ffffff } 
		.shp11 { fill: #dfe1e2 } 
		.shp12 { fill: #edeeef } 
		.shp13 { fill: none;stroke: #5d5c74;stroke-width: 3 } 
		.shp14 { fill: none;stroke: #f39200;stroke-width: 3 } 
		.shp15 { fill: none;stroke: #4fc1eb;stroke-width: 3 } 
	</style>
	<g id="XMLID_2188_">
		<path id="XMLID_7309_" class="shp0" d="M759.5,513.7h-709.2" />
		<path id="XMLID_7308_" class="shp1" d="M626.4,232.3c23.9,74.6 -11.4,131.2 -103.2,131.2c-97,0 -125.1,-56.4 -102.2,-131.2c14.5,-47.2 9,-98.5 23.7,-122c20.8,-33.1 40.1,-46 78.4,-46c36.1,0 59.5,11.5 74.3,43.7c12.2,26.2 13.5,75.9 29,124.3z" />
		<path id="Shape 58" class="shp1" d="M201.11,327.18c0.91,-0.46 -0.09,3.43 -0.2,3.93c-0.85,3.92 -2.31,18.88 -2.47,17" />
		<path id="Shape 59" class="shp1" d="M214.04,328.04c0,-3.53 1.4,4.59 2.66,6.4c2.44,3.51 15.55,20.63 12,10.46" />
		<path id="Shape 60" class="shp1" d="M227.77,321.18c-0.51,-0.53 1.55,-0.28 2.2,0.07c2.74,1.46 20.42,13.87 17.46,9.66" />
		<path id="Shape 61" class="shp1" d="M240.97,300c5.6,0 23.53,4.76 22.8,4.71" />
		<path id="Shape 63" class="shp2" d="M153.45,511.11c-0.33,0.13 3.02,-1.02 3.87,-1.36c3.15,-1.24 6.48,-2.17 9.72,-3.14c10.89,-3.26 19.12,-4.67 27.89,-13.65c21.53,-22.04 17.55,-67.24 55.84,-65.19c23.11,1.24 28.37,34.64 38.87,52.44c5.64,9.55 14.66,17.96 22.9,24.43c7.05,5.54 15.24,5.74 23.49,6.18c2.78,0.15 4.68,1.28 7.28,2.11c0.99,0.32 2.7,2.67 2.8,1.49c0.23,-2.75 0.16,-5.53 -0.02,-8.28" />
		<path id="Shape 70" class="shp2" d="M238.55,284.07c0,-2.46 4.82,-0.94 7.25,-1.3c4.11,-0.61 9.19,-4.8 13.18,-4.8" />
		<path id="Shape 65" class="shp3" d="M304.11,243.84c-2.9,4.61 6.5,-25.74 8.2,-31.13c0.9,-2.86 1.78,-5.72 2.6,-8.6c0.4,-1.4 1.2,-5.66 1.2,-4.2c0,3.32 -8.55,24.63 1.66,23.73c6.89,-0.61 9.44,-13.38 11.6,-18.2c0.82,-1.82 1.54,-3.1 1.54,-5.07c0,-1.13 0,-4.54 0,-3.4c0,3.21 -2.88,6.9 -3.14,10.4c-0.29,3.91 3.03,23.62 0.6,16.8" />
		<path id="Shape 66" class="shp3" d="M675.77,304.57c-0.61,1.54 0.92,-3.26 1.93,-4.57c0.56,-0.73 6.86,0 8,0c0.32,0 2.84,-0.12 2.87,0c1.34,5.74 1.18,11.2 -1.53,16.38c-0.45,0.86 -5.87,6.77 -5.93,6.53c-1.2,-4.8 8.73,-17.18 9.87,-22.91c0.07,-0.37 4.56,0.38 4.66,0c0.58,-2.11 4.9,-6.87 2.93,-5.89c-3.79,1.89 -11.77,19.98 -3.46,24.13c3.54,1.77 15.9,-3.34 12.07,-6.54" />
		<path id="Shape 67" class="shp3" d="M673.97,291.11c0,0.37 2.62,-0.79 3.07,-0.93c2.38,-0.79 4.75,-1.99 7.2,-2.54c2.54,-0.56 18.33,-2.56 18.33,-4.6" />
		<path id="Shape 68" class="shp3" d="M95.11,142.31c3.91,0 4.87,15.56 12.2,13.2c4.02,-1.29 6.73,-5.91 6.73,-9.87c0,-1.96 0.28,-7.73 -0.34,-5.87c-3.4,10.25 2,30.58 -7.6,37.47c-6.7,4.81 -8.18,-10.32 -2.73,-11.54c5.79,-1.29 1.43,7.52 0.54,4.6" />
		<path id="Shape 69" class="shp3" d="M99.24,125.04c1,-2.14 4.46,-2.95 6.27,-5.66c0.82,-1.22 0.96,-4.97 2,-3.93c1.49,1.49 9.48,11.36 8.27,11.73" />
		<path id="Shape 70" class="shp3" d="M665.91,76.77c0.61,0.61 -17.69,5.6 -21.27,5.6c-2.27,0 -8.95,0.51 -6.8,-0.2c2.03,-0.67 8.23,2.14 10.4,2.53c17.82,3.21 10.95,7.74 2.4,21.2c-0.39,0.62 -5.08,6.71 -4.66,7.13c0.54,0.54 1.52,-0.08 2.27,-0.2c5.89,-0.91 23.21,-3.24 21.8,-6.07" />
		<path id="Shape 71" class="shp3" d="M672.04,87.97c1.11,-2.98 5.29,-8.84 7.46,-1.53c0.96,3.21 0.56,7.5 -1.46,10.13c-1.19,1.55 -4.51,6.1 -4.07,4.2c1.22,-5.25 7.12,-10.67 10.33,-14.87c1.51,-1.97 6.55,-4.96 4.33,-6.07c-4.11,-2.06 -8.38,15.12 -6.8,18.4c2.7,5.6 12.9,-1.82 11.6,-2.47" />
		<path id="Shape 72" class="shp3" d="M697.97,91.04c2.89,-1.73 -0.98,7.32 -0.34,9.47c0.6,2.01 5.8,1.69 5.8,-1.13" />
		<path id="XMLID_7304_" class="shp4" d="M392,406.9c0,-54.9 59.2,-99.5 132.2,-99.5c73,0 132.2,44.5 132.2,99.5" />
		<path id="XMLID_7303_" class="shp5" d="M553.8,156c-28.4,0 -52.9,-11.6 -64.6,-28.4c-4.7,18.9 -18,33 -34,35c0,17.7 0,45.8 0,61.2c0,23.6 14.8,53 37.9,67.8v23.6c0,13.2 8.3,31.7 30.2,31.7c21.3,0 30.6,-18.5 30.6,-31.7v-22c24.7,-14.2 38,-45 38,-69.5c0,-23.6 0,-77.2 0,-77.2c0,-0.2 0,-0.3 0,-0.5c-4.1,8 -14,10 -38.1,10z" />
		<path id="XMLID_7300_" class="shp6" d="M523.1,347.5c-23.1,0 -31.4,-19.7 -31.4,-33v-23c-22,-14.4 -37.9,-43.1 -37.9,-68.5v-61.2c0,-0.6 0.5,-1.2 1.1,-1.3c15.3,-1.9 28.2,-15.2 32.9,-34c0.1,-0.5 0.5,-0.9 1,-1c0.5,-0.1 1,0.1 1.3,0.5c12,17.1 36.3,27.8 63.5,27.8c24.7,0 33.3,-2.1 36.9,-9.1c0.3,-0.5 0.9,-0.8 1.4,-0.7c0.6,0.1 1,0.6 1,1.2v77.7c0,23.1 -11.9,54.8 -38,70.2v21.2c0.1,13.9 -9.8,33.2 -31.8,33.2zM456.3,162.9v60.1c0,24.8 15.7,52.9 37.3,66.7c0.4,0.2 0.6,0.6 0.6,1.1v23.6c0,12.2 7.7,30.4 28.9,30.4c20.2,0 29.3,-17.8 29.3,-30.4v-22c0,-0.5 0.2,-0.9 0.6,-1.1c24.5,-14.1 37.3,-45.1 37.3,-68.4v-73.7c-5.8,6 -17.2,7.1 -36.8,7.1c-26.9,0 -51.1,-10.2 -64.1,-26.7c-5.2,18.1 -17.9,30.9 -33.1,33.3z" />
		<g id="XMLID_7298_">
			<path id="XMLID_7299_" class="shp6" d="M537.5,248.2c0,0 -5.9,6.8 -13.2,6.8c-7.3,0 -13.2,-6.8 -13.2,-6.8c0,0 5.9,0.8 13.2,0.8c7.3,0 13.2,-0.8 13.2,-0.8z" />
		</g>
		<g id="XMLID_7296_">
			<path id="XMLID_7297_" class="shp6" d="M525,229.8c-0.1,0 -0.2,0 -0.3,0c-2.1,-0.1 -3.9,-0.9 -4.9,-2.3c-0.8,-1.1 -1,-2.5 -0.6,-3.9l1.2,0.4c-0.3,1 -0.2,1.9 0.4,2.7c0.8,1.1 2.2,1.8 3.9,1.8c2,0 3.8,-0.7 4.7,-1.9c0.6,-0.8 0.6,-1.8 0.2,-2.9l1.2,-0.5c0.8,1.9 0.3,3.3 -0.3,4.1c-1,1.5 -3.2,2.5 -5.5,2.5z" />
		</g>
		<path id="XMLID_7295_" class="shp7" d="M670.3,378.6v156.6c0,8.1 -6.6,14.7 -14.7,14.7h-265.4c-8.1,0 -14.7,-6.6 -14.7,-14.7v-156.8c0,-8.1 6.6,-14.7 14.7,-14.7h265.4c8.1,0.2 14.7,6.8 14.7,14.9z" />
		<path id="XMLID_7294_" class="shp8" d="M670.3,518.1v17.2c0,8.1 -6.6,14.7 -14.7,14.7h-265.4c-8.1,0 -14.7,-6.6 -14.7,-14.7v-17.3z" />
		<path id="XMLID_7293_" class="shp9" d="M375.5,460c-1.7,0 -3.1,-1.4 -3.1,-3.1v-31c0,-1.7 1.6,-2.9 3.1,-2.9c1.6,0 2.9,1.4 2.9,2.9v31c0.2,1.7 -1.2,3.1 -2.9,3.1z" />
		<path id="XMLID_7292_" class="shp9" d="M655.6,553.2h-265.4c-9.9,0 -17.8,-8 -17.8,-17.8v-59.4c0,-1.7 1.6,-2.9 3.1,-2.9c1.6,0 2.9,1.4 2.9,2.9v59.4c0,6.4 5.2,11.8 11.6,11.8h265.6c6.4,0 11.6,-5.2 11.6,-11.8v-156.8c0,-6.4 -5.2,-11.8 -11.6,-11.8h-265.4c-6.4,0 -11.6,5.2 -11.6,11.8v30.8c0,1.7 -1.4,3.1 -3.1,3.1c-1.7,0 -3.1,-1.4 -3.1,-3.1v-30.8c0,-9.9 8,-17.8 17.8,-17.8h265.4c9.9,0 17.8,8 17.8,17.8v156.6c0,9.9 -7.9,18 -17.8,18z" />
		<path id="XMLID_7288_" class="shp10" d="M652.7,426.2v-28.2c0,-9.4 -7.7,-17.2 -17.2,-17.2h-31.7c-1.4,0 -2.4,1 -2.4,2.4c0,1.4 1,2.4 2.4,2.4h31.7c6.8,0 12.3,5.5 12.3,12.3v28.2c0,1.4 1,2.4 2.4,2.4c1.4,0 2.6,-1.2 2.5,-2.3zM588.7,383.1c0,-1.4 -1,-2.4 -2.4,-2.4h-22.2c-1.4,0 -2.4,1 -2.4,2.4c0,1.4 1,2.4 2.4,2.4h22.2c1.4,0 2.4,-1.2 2.4,-2.4zM523.1,449.3c-11.1,0 -20.1,9 -20.1,20.1c0,11.1 9,20.1 20.1,20.1c11.1,0 19.9,-6.2 8.3,-20.1c8,-10.1 2.8,-20.1 -8.3,-20.1z" />
		<path id="XMLID_7285_" class="shp9" d="M531.4,456.4c1.6,2.9 0.7,6.9 -2.4,10.7c-1,1.2 -0.9,3 0,4c4,4.7 5.5,8.7 4.3,11.1c-1,2.4 -5.2,4 -10.4,4c-9.4,0 -17,-7.6 -17,-17c0,-9.4 7.6,-17 17,-17c4,0 7.3,1.8 8.5,4.2zM539,485c2.1,-4.4 0.7,-9.7 -3.8,-15.8c3.3,-5.2 4,-10.7 1.7,-15.2c-2.4,-4.9 -7.6,-7.8 -14,-7.8c-12.8,0 -23.2,10.4 -23.2,23.2c0,12.8 10.4,23.2 23.2,23.2c7.8,0 13.9,-2.8 16.1,-7.6z" />
		<path id="XMLID_7284_" class="shp9" d="M519.8,440.3c-1.7,0 -3.1,-1.4 -3.1,-3.1c0,-0.3 0,-0.5 0.2,-0.9c0.2,-0.3 2.8,-9.7 10.6,-12c1.6,-0.5 3.3,0.5 3.8,2.3c0.3,1.6 -0.5,3.3 -2.1,3.6c-4.3,1.4 -6.4,7.6 -6.4,7.8c-0.4,1.4 -1.6,2.3 -3,2.3z" />
		<path id="XMLID_7283_" class="shp11" d="M225,530.6h43v-64.1h-43z" />
		<path id="XMLID_7280_" class="shp9" d="M228.1,469.6h36.9v57.9h-36.9zM271.2,530.6v-64.1c0,-1.7 -1.4,-3.1 -3.1,-3.1h-43c-1.7,0 -3.1,1.4 -3.1,3.1v64.1c0,1.7 1.4,3.1 3.1,3.1h43c1.7,0 2.9,-1.4 3.1,-3.1z" />
		<path id="XMLID_7275_" class="shp9" d="M268.1,522.1c-1.7,0 -3.1,-1.4 -3.1,-3.1c0,-1.7 1.4,-3.1 3.1,-3.1c9.5,0 17.3,-7.8 17.3,-17.3c0,-9.5 -7.8,-17.3 -17.3,-17.3c-1.7,0 -3.1,-1.4 -3.1,-3.1c0,-1.7 1.4,-3.1 3.1,-3.1c13,0 23.4,10.6 23.4,23.6c0,12.9 -10.6,23.4 -23.4,23.4zM246.6,458.5c-0.5,0 -1,-0.2 -1.4,-0.7c-0.5,-0.7 -5.5,-7.6 -4.5,-12.3c0.5,-2.1 1.7,-3.6 3.1,-5.2c1.6,-1.9 3.1,-3.6 3.3,-6.6c0.2,-1 1,-1.7 2.1,-1.7c1,0.2 1.7,1 1.7,2.1c-0.3,4.2 -2.4,6.6 -4.2,8.7c-1,1.2 -2.1,2.4 -2.3,3.6c-0.5,2.4 2.4,7.3 3.8,9.2c0.7,0.9 0.5,1.9 -0.3,2.6c-0.6,0.2 -0.9,0.3 -1.3,0.3zM236,457.2c-0.2,0 -0.3,0 -0.5,-0.2c-0.3,-0.3 -3.8,-2.6 -4.2,-5c-0.2,-1 0.2,-2.1 0.7,-2.9c0.5,-1.2 0.9,-2.3 0.5,-3.6c-0.2,-0.5 0.2,-1 0.7,-1c0.5,-0.2 1,0.2 1,0.7c0.5,2.1 -0.2,3.5 -0.5,4.7c-0.3,0.7 -0.5,1.4 -0.5,2.1c0.2,1 2.1,2.8 3.3,3.8c0.3,0.3 0.5,0.9 0.2,1.2c-0.1,0 -0.3,0.2 -0.7,0.2zM257.2,457.5c-0.3,0 -0.7,-0.2 -0.9,-0.7c-0.2,-0.5 -1.6,-4.5 -0.3,-6.6c0.5,-0.9 1.4,-1.6 2.3,-2.1c1,-0.7 1.9,-1.2 2.6,-2.6c0.2,-0.5 0.7,-0.7 1.2,-0.3c0.3,0.2 0.7,0.7 0.5,1.2c-0.9,1.9 -2.3,2.8 -3.3,3.5c-0.7,0.5 -1.4,0.9 -1.6,1.4c-0.5,1 0,3.5 0.5,5c0.2,0.5 0,1 -0.5,1.2z" />
		<path id="XMLID_7271_" class="shp10" d="M239.4,517.3c-1.5,0 -2.7,-1.1 -2.7,-2.7v-20c0,-1.5 1.1,-2.7 2.7,-2.7c1.5,0 2.7,1.1 2.7,2.7v20c0,1.6 -1.2,2.7 -2.7,2.7zM239.4,540.1c-1.5,0 -2.7,-1.1 -2.7,-2.7v-10.1c0,-1.5 1.1,-2.7 2.7,-2.7c1.5,0 2.7,1.1 2.7,2.7v10.1c0,1.4 -1.2,2.7 -2.7,2.7z" />
		<path id="XMLID_7270_" class="shp8" d="M229.1,268.6l-50.1,50.2c0,0 -11.6,-10.7 -13.3,-19.9c0,0 -8.3,-21.2 10.6,-37.9c0,0 11,-13 34.1,-7.4c0,0 12.6,4.2 18.7,15z" />
		<path id="XMLID_7269_" class="shp9" d="M109.9,233.2c0.1,-0.5 0.5,-0.8 0.9,-1c0.4,-0.2 0.9,-0.2 1.4,0l59.9,26.3c0.2,0.1 0.4,0.2 0.6,0.4c15.5,-14.2 39.6,-13.9 54.6,1.1c2.3,2.3 4.3,4.9 5.9,7.6v0c0.7,0.8 0.7,2 -0.1,2.7l-4.2,4.2h-5.7l5.8,-5.8c-1.3,-2 -2.9,-4 -4.6,-5.8c-13.8,-13.8 -36.3,-13.8 -50.2,0c-9.7,9.7 -12.6,23.8 -8.6,36.1v0c0.2,0.7 0.1,1.4 -0.5,1.9c-0.8,0.8 -2,0.8 -2.8,0c-0.1,-0.1 -0.2,-0.3 -0.3,-0.4c0,0 -0.1,0 -0.1,-0.1v-0.1c0,-0.1 -0.1,-0.2 -0.1,-0.3c-4.2,-13.1 -1.4,-27.9 8.3,-38.6l-57.6,-25.3l-23.3,74.2h-3.6z" />
		<path id="XMLID_7265_" class="shp9" d="M112.8,532.3c-0.5,0 -1,-0.2 -1.3,-0.6l-39.4,-48.4h4.4l37.1,45.6h64.2c0.9,0 1.7,0.8 1.7,1.7v9c0,0.9 -0.8,1.7 -1.7,1.7l-137.5,1.4v0c-0.9,0 -1.7,-0.8 -1.7,-1.7c0,-0.9 0.7,-1.7 1.7,-1.7l135.8,-1.4v-5.6z" />
		<path id="XMLID_7263_" class="shp9" d="M181.8,321.6c-0.8,0.8 -2.1,0.8 -2.8,0c-0.8,-0.8 -0.8,-2.1 0,-2.8l10.3,-10.3v5.7z" />
		<path id="XMLID_7262_" class="shp12" d="M220.4,308.9c-7.4,7.4 -19.1,7.7 -27,1.1l28,-28c6.7,7.8 6.4,19.5 -1,26.9z" />
		<path id="XMLID_7256_" class="shp9" d="M224.2,279.2c8.2,9.4 7.8,23.7 -1.1,32.6c-8.9,9 -23.2,9.3 -32.6,1.1l-1.3,1.3v-5.7l34,-34h5.7zM193.4,310.1c7.9,6.6 19.6,6.3 27,-1.1c7.4,-7.4 7.7,-19.2 1.1,-27z" />
		<path id="XMLID_7255_" class="shp7" d="M50.2,473.7c-11.2,0 -20.2,-9.1 -20.2,-20.2c0,-11.2 9.1,-20.2 20.2,-20.2c11.2,0 20.2,9.1 20.2,20.2c0,11.2 -9.1,20.2 -20.2,20.2z" />
		<path id="XMLID_7251_" class="shp9" d="M63.7,472.7c-3.8,2.7 -8.5,4.3 -13.5,4.3c-13,0 -23.6,-10.6 -23.6,-23.6c0,-13 10.6,-23.6 23.6,-23.6c1.7,0 3.5,0.2 5.1,0.6l2.5,-7.9h3.6l-2.8,8.9c8.9,3.4 15.3,12 15.3,22.1c0,6.8 -2.9,12.9 -7.5,17.2l10.2,12.6h-4.4zM70.4,453.5c0,-11.1 -9,-20.2 -20.2,-20.2c-11.1,0 -20.2,9 -20.2,20.2c0,11.1 9,20.2 20.2,20.2c11.1,0 20.2,-9 20.2,-20.2z" />
		<path id="XMLID_7247_" class="shp8" d="M40.3,539.3h135.8v-7h-135.8z" />
		<path id="XMLID_7245_" class="shp13" d="M56.4,432.3l31.8,-124.5" />
		<g id="XMLID_7240_">
			<path id="XMLID_7243_" class="shp6" d="M475.8,189.7c-0.6,0 -1.3,-0.2 -1.8,-0.7c-1.1,-1 -1.1,-2.6 -0.1,-3.7c3.3,-3.5 7.9,-5.3 12.3,-4.9c3.7,0.3 6.8,2.2 8.7,5.1c0.8,1.2 0.4,2.8 -0.8,3.6c-1.2,0.8 -2.8,0.4 -3.6,-0.8c-1,-1.6 -2.7,-2.5 -4.7,-2.7c-2.8,-0.3 -5.8,1 -8,3.3c-0.6,0.5 -1.3,0.8 -2,0.8z" />
		</g>
		<g id="XMLID_7234_">
			<path id="XMLID_7235_" class="shp6" d="M574.4,189.7c-0.7,0 -1.4,-0.3 -1.9,-0.8c-2.2,-2.3 -5.4,-3.6 -8.6,-3.4c-2.6,0.1 -4.8,1.2 -6.2,3c-0.9,1.2 -2.5,1.4 -3.7,0.5c-1.1,-0.9 -1.4,-2.5 -0.5,-3.7c2.3,-3 5.9,-4.8 10,-5.1c4.8,-0.3 9.4,1.6 12.7,5c1,1 1,2.7 -0.1,3.7c-0.4,0.5 -1,0.8 -1.7,0.8z" />
		</g>
		<path id="XMLID_7233_" class="shp14" d="M593.6,24.1c-1.3,1.1 -3,1.8 -4.9,1.8c-4.1,0 -7.4,-3.3 -7.4,-7.4c0,-4.1 3.3,-7.4 7.4,-7.4c4.1,0 7.4,3.3 7.4,7.4c0,1.3 -0.3,2.5 -0.9,3.5" />
		<path id="XMLID_7231_" class="shp15" d="M927.6,36c-1.2,1 -2.8,1.7 -4.5,1.7c-3.8,0 -6.9,-3.1 -6.9,-6.9c0,-3.8 3.1,-6.9 6.9,-6.9c3.8,0 6.9,3.1 6.9,6.9c0,1.2 -0.3,2.3 -0.8,3.2" />
		<path id="XMLID_7227_" class="shp15" d="M723.9,-25.7c-2.8,2.4 -6.5,3.9 -10.5,3.9c-8.9,0 -16.1,-7.2 -16.1,-16.1c0,-8.9 7.2,-16.1 16.1,-16.1c8.9,0 16.1,7.2 16.1,16.1c0,2.7 -0.7,5.3 -1.9,7.6" />
		<path id="XMLID_7226_" class="shp15" d="M738.4,128.4c-0.9,0.8 -2.2,1.3 -3.5,1.3c-3,0 -5.4,-2.4 -5.4,-5.4c0,-3 2.4,-5.4 5.4,-5.4c3,0 5.4,2.4 5.4,5.4c0,0.9 -0.2,1.8 -0.6,2.5" />
		<path id="XMLID_7222_" class="shp14" d="M776.6,72.4c-1.9,1.6 -4.3,2.6 -7,2.6c-5.9,0 -10.7,-4.8 -10.7,-10.7c0,-5.9 4.8,-10.7 10.7,-10.7c5.9,0 10.7,4.8 10.7,10.7c0,1.8 -0.5,3.5 -1.3,5" />
		<path id="XMLID_7218_" class="shp14" d="M422.9,-49.9c-0.9,0.8 -2.2,1.3 -3.5,1.3c-3,0 -5.4,-2.4 -5.4,-5.4c0,-3 2.4,-5.4 5.4,-5.4c3,0 5.4,2.4 5.4,5.4c0,0.9 -0.2,1.8 -0.6,2.5" />
		<path id="XMLID_7196_" class="shp14" d="M893.7,176.5c-0.9,0.8 -2.2,1.3 -3.5,1.3c-3,0 -5.4,-2.4 -5.4,-5.4c0,-3 2.4,-5.4 5.4,-5.4c3,0 5.4,2.4 5.4,5.4c0,0.9 -0.2,1.8 -0.6,2.5" />
		<path id="Shape 49" class="shp14" d="M272.3,97.11c0,11.62 3.46,23.9 3.46,35.93c0,4.05 0.67,18.5 0.67,16.73" />
		<path id="Shape 50" class="shp14" d="M275.7,96.91c-5.86,-1.76 18.01,-2.12 18.54,-1.6c0.9,0.9 -1.5,30.9 -1.2,35.66c0.29,4.69 1.02,20.39 0.8,17.07" />
		<path id="Shape 51" class="shp14" d="M277.84,147.11c0,5.23 20.61,1.58 19.47,-0.34" />
		<path id="Shape 52" class="shp14" d="M306.04,80.18c0,14.23 2.6,28.64 2.6,43.13c0,3.42 -0.17,22.17 -1.93,20" />
		<path id="Shape 53" class="shp14" d="M311.11,82.97c-6.92,-8.53 13.56,-6.92 17.46,-3.93c0.48,0.37 -0.75,3.69 -0.8,3.93c-2.8,12.71 -0.96,27.44 -0.46,40.34c0.19,5.04 0.48,9.97 1.33,14.93c0.22,1.28 0.54,8.21 0.54,5.66" />
		<path id="Shape 54" class="shp14" d="M311.44,143.11c-1.26,1.05 -6.28,1.28 -4.67,1.6c3.61,0.72 28.03,1.18 22.93,-3.13" />
		<path id="Shape 55" class="shp14" d="M340.17,63.04c0.01,-0.03 0.13,5.52 0.13,6.87c0,3.89 0.01,7.78 0.07,11.67c0.18,13.44 0.46,27 0.46,40.4c0,3.24 2.47,24.68 -0.86,17.8" />
		<path id="Shape 56" class="shp14" d="M345.37,60.18c-1.52,3.04 9.98,1.74 13.46,4.07c1.53,1.02 -0.09,14.49 -0.2,16c-1.09,15.51 -0.65,30.94 -0.4,46.46c0.03,1.63 1.66,13.81 0.93,14.54c-1.22,1.22 -10.06,-0.2 -12.07,-0.2c-2.21,0 -5.84,4.51 -6.2,2.34c-0.26,-1.55 2.21,-5.87 0.46,-5.87" />
		<path id="Shape 57" class="shp14" d="M277.77,157.04c-2.42,0 4.87,0.47 7.27,0.14c4.84,-0.66 9.34,-2.97 14.27,-3.54c14.6,-1.68 29.48,-4.07 44.2,-4.07c2.98,0 21.31,0.86 20.93,0.4" />
	</g>
</svg>